<svg width="26" height="26" viewBox="0 0 26 26" fill="none" xmlns="http://www.w3.org/2000/svg">
<g id="Twitter / Negative" clip-path="url(#clip0_65_1408)">
<path id="Vector" d="M8.17934 23.5625C17.9882 23.5625 23.3548 15.434 23.3548 8.38708C23.3548 8.15856 23.3497 7.92497 23.3396 7.69645C24.3835 6.94148 25.2845 6.00634 26 4.93497C25.0277 5.36754 23.9954 5.65006 22.9384 5.77286C24.0514 5.10571 24.8847 4.05766 25.284 2.82298C24.2369 3.4435 23.0919 3.88122 21.8979 4.11739C21.0934 3.26259 20.0297 2.6966 18.8713 2.50695C17.7129 2.3173 16.5243 2.51453 15.4892 3.06817C14.4541 3.6218 13.6303 4.50099 13.145 5.56982C12.6597 6.63864 12.54 7.83756 12.8045 8.98122C10.6844 8.87483 8.61026 8.32407 6.71665 7.36467C4.82303 6.40526 3.15217 5.05862 1.81238 3.41204C1.13143 4.58607 0.923061 5.97534 1.22962 7.29749C1.53617 8.61964 2.33465 9.77546 3.46277 10.53C2.61585 10.5032 1.78747 10.2751 1.04609 9.86481V9.93083C1.04534 11.1629 1.47127 12.3572 2.2515 13.3107C3.03173 14.2643 4.1181 14.9182 5.32594 15.1613C4.54139 15.376 3.71798 15.4072 2.91941 15.2527C3.26024 16.3123 3.92337 17.239 4.81625 17.9036C5.70913 18.5682 6.78721 18.9374 7.90004 18.9597C6.01079 20.4438 3.67702 21.2487 1.27461 21.2449C0.848561 21.2442 0.422932 21.2181 0 21.1667C2.44059 22.7325 5.27966 23.5641 8.17934 23.5625Z" fill="#161722"/>
</g>
<defs>
<clipPath id="clip0_65_1408">
<rect width="26" height="26" fill="white"/>
</clipPath>
</defs>
</svg>
