<svg width="132" height="27" viewBox="0 0 132 27" fill="none" xmlns="http://www.w3.org/2000/svg">
<g id="Logo" clip-path="url(#clip0_3673_32)">
<path id="t" d="M131.766 20.4185V23.685H129.026C126.102 23.5931 124.54 22.0142 124.54 19.0483V11.5878H122.626V8.72226H124.54V5.51416H128.583V8.68884H131.674V11.5461H128.583V18.6473C128.583 19.6081 128.775 20.3767 130.254 20.3767L131.766 20.4185Z" fill="white"/>
<path id="e" d="M106.51 16.2326V16.0153C106.467 15.0545 106.613 14.0944 106.941 13.1902C107.269 12.286 107.772 11.4554 108.422 10.746C109.072 10.0366 109.855 9.46242 110.727 9.05631C111.599 8.65021 112.542 8.42017 113.503 8.37939C113.695 8.37939 113.896 8.37939 114.088 8.37939C117.906 8.37939 121.256 10.6017 121.256 15.8984V17.0262H110.646C110.755 19.4657 112.075 20.8442 114.297 20.8442C116.21 20.8442 117.104 20.0088 117.363 18.789H121.181C120.713 21.9721 118.173 23.7432 114.155 23.7432C109.744 23.7098 106.51 20.9194 106.51 16.2326ZM117.279 14.4698C117.137 12.2475 116.018 11.1781 114.071 11.1781C112.125 11.1781 111.005 12.3812 110.729 14.4698H117.279Z" fill="white"/>
<path id="e_2" d="M90.0022 16.2326V16.0153C89.9585 15.0558 90.1042 14.0971 90.4312 13.1939C90.7581 12.2907 91.2599 11.4608 91.9077 10.7517C92.5556 10.0425 93.3369 9.46801 94.2069 9.06096C95.0769 8.65391 96.0186 8.42231 96.9782 8.37939C97.1703 8.37939 97.3708 8.37939 97.563 8.37939C101.381 8.37939 104.739 10.6017 104.739 15.8984V17.0262H94.1377C94.2463 19.4657 95.5663 20.8442 97.7886 20.8442C99.7017 20.8442 100.596 20.0088 100.855 18.789H104.673C104.196 21.9721 101.657 23.7432 97.6382 23.7432C93.2354 23.7098 90.0022 20.9194 90.0022 16.2326ZM100.771 14.4698C100.629 12.2475 99.5096 11.1781 97.563 11.1781C95.6164 11.1781 94.5303 12.4146 94.2212 14.4614L100.771 14.4698Z" fill="white"/>
<path id="w" d="M66.8354 8.68848H71.1129L73.7279 18.5968L76.5934 8.68848H79.9352L82.5251 18.5968L85.282 8.68848H89.2003L84.5552 23.409H80.5451L78.0387 14.169L75.357 23.409H71.2967L66.8354 8.68848Z" fill="white"/>
<path id="s" d="M53.2427 18.7809H57.0607C57.2361 20.1092 57.8961 20.8695 59.6505 20.8695C61.2212 20.8695 61.948 20.2763 61.948 19.2654C61.948 18.2545 61.1126 17.8285 58.9738 17.5277C55.0556 16.9345 53.5434 15.8067 53.5434 12.9328C53.5434 9.8667 56.3505 8.34619 59.3915 8.34619C62.6581 8.34619 65.1227 9.53252 65.4736 12.9161H61.7057C61.6817 12.6545 61.606 12.4003 61.4832 12.1681C61.3603 11.9359 61.1927 11.7304 60.9899 11.5634C60.7872 11.3964 60.5534 11.2712 60.3019 11.1951C60.0505 11.1189 59.7865 11.0934 59.5252 11.1199H59.3999C58.0799 11.1199 57.3113 11.7381 57.3113 12.6404C57.3113 13.5426 58.0214 13.9353 60.1769 14.2444C63.8361 14.7958 65.8829 15.7232 65.8829 18.8728C65.8829 22.0224 63.5688 23.71 59.6923 23.71C55.8158 23.71 53.3513 21.9639 53.2427 18.7809Z" fill="white"/>
<path id="n" d="M37.0186 8.68847H41.0621V11.0194C41.5179 10.1638 42.2097 9.45709 43.0553 8.98318C43.9009 8.50927 44.8648 8.2881 45.8325 8.34594C48.698 8.34594 50.7783 10.092 50.7783 14.0771V23.4424H46.7849V14.6619C46.7849 12.6652 46.0079 11.7128 44.2034 11.7128C43.822 11.6796 43.4377 11.722 43.0728 11.8377C42.7078 11.9534 42.3693 12.14 42.0767 12.3868C41.784 12.6337 41.543 12.9359 41.3675 13.2761C41.1919 13.6164 41.0853 13.9879 41.0537 14.3695C41.0329 14.5471 41.0329 14.7265 41.0537 14.9042V23.409H37.0186V8.68847Z" fill="white"/>
<path id="i" d="M29.2152 4.98753C29.2006 4.58437 29.3059 4.18593 29.5178 3.84266C29.7297 3.49938 30.0387 3.2267 30.4057 3.05914C30.7727 2.89159 31.1811 2.83669 31.5793 2.9014C31.9775 2.9661 32.3476 3.14751 32.6426 3.42265C32.9377 3.69779 33.1444 4.05428 33.2367 4.447C33.3291 4.83972 33.3028 5.251 33.1612 5.62877C33.0197 6.00655 32.7692 6.33382 32.4415 6.56916C32.1139 6.8045 31.7237 6.93733 31.3205 6.95082H31.2453C30.9951 6.96666 30.7442 6.93294 30.507 6.85158C30.2698 6.77023 30.051 6.64284 29.8632 6.47674C29.6754 6.31063 29.5222 6.10908 29.4124 5.88363C29.3026 5.65818 29.2385 5.41328 29.2236 5.16297C29.2166 5.10477 29.2138 5.04614 29.2152 4.98753ZM29.2152 8.68854H33.3005V23.4091H29.2319L29.2152 8.68854Z" fill="white"/>
<path id="F" d="M13.8184 3.2915H26.7343V6.85885H18.3799V12.1806H24.9966V15.6143H18.3715V23.409H13.8184V3.2915Z" fill="white"/>
<path id="{" d="M6.02355 9.87494C6.02355 11.1365 6.02355 12.6737 4.28582 13.3003C6.06532 13.9101 6.02355 15.2051 6.02355 16.5585V21.5711C6.02355 22.5235 6.40785 23.1 7.09291 23.242C7.24344 23.2928 7.40203 23.3155 7.56076 23.3089H9.23165V26.6506H6.47468C3.53392 26.6506 1.91316 24.9797 1.91316 21.8803V15.9486C1.89231 15.6441 1.75804 15.3585 1.53686 15.1481C1.31568 14.9377 1.02367 14.818 0.718481 14.8124H0V11.88H0.718481C1.02976 11.8759 1.3275 11.7521 1.54994 11.5343C1.77239 11.3166 1.90246 11.0215 1.91316 10.7104V4.69519C1.91316 1.64582 3.50051 0 6.47468 0H9.25671V3.29165H7.58582C7.4269 3.29211 7.26904 3.31748 7.11798 3.36684C6.43291 3.54228 6.04861 4.11038 6.04861 5.03772L6.02355 9.87494Z" fill="white"/>
</g>
<defs>
<clipPath id="clip0_3673_32">
<rect width="132" height="26.7342" fill="white"/>
</clipPath>
</defs>
</svg>
